<svg width="18" height="18" viewBox="0 0 18 18" fill="none" xmlns="http://www.w3.org/2000/svg">
<path d="M10 6C10 5.44772 9.55228 5 9 5C8.44772 5 8 5.44772 8 6H10ZM8 9C8 9.55228 8.44772 10 9 10C9.55228 10 10 9.55228 10 9H8ZM9 11C8.44772 11 8 11.4477 8 12C8 12.5523 8.44772 13 9 13V11ZM9.0075 13C9.55978 13 10.0075 12.5523 10.0075 12C10.0075 11.4477 9.55978 11 9.0075 11V13ZM14.75 9C14.75 12.1756 12.1756 14.75 9 14.75V16.75C13.2802 16.75 16.75 13.2802 16.75 9H14.75ZM9 14.75C5.82436 14.75 3.25 12.1756 3.25 9H1.25C1.25 13.2802 4.71979 16.75 9 16.75V14.75ZM3.25 9C3.25 5.82436 5.82436 3.25 9 3.25V1.25C4.71979 1.25 1.25 4.71979 1.25 9H3.25ZM9 3.25C12.1756 3.25 14.75 5.82436 14.75 9H16.75C16.75 4.71979 13.2802 1.25 9 1.25V3.25ZM8 6V9H10V6H8ZM9 13H9.0075V11H9V13Z" fill="#15274D"/>
</svg>
