<svg width="18" height="18" viewBox="0 0 18 18" fill="none" xmlns="http://www.w3.org/2000/svg">
<path d="M2.29289 11.2929C1.90237 11.6834 1.90237 12.3166 2.29289 12.7071C2.68342 13.0976 3.31658 13.0976 3.70711 12.7071L2.29289 11.2929ZM6.43934 8.56066L7.14645 9.26777L7.14645 9.26777L6.43934 8.56066ZM8.56066 8.56066L9.26777 7.85355L9.26777 7.85355L8.56066 8.56066ZM11.2929 12.7071C11.6834 13.0976 12.3166 13.0976 12.7071 12.7071C13.0976 12.3166 13.0976 11.6834 12.7071 11.2929L11.2929 12.7071ZM9.79289 9.79289C9.40237 10.1834 9.40237 10.8166 9.79289 11.2071C10.1834 11.5976 10.8166 11.5976 11.2071 11.2071L9.79289 9.79289ZM13.8107 9.31066L13.1036 10.0178L13.1036 10.0178L13.8107 9.31066ZM14.2929 11.2071C14.6834 11.5976 15.3166 11.5976 15.7071 11.2071C16.0976 10.8166 16.0976 10.1834 15.7071 9.79289L14.2929 11.2071ZM10.5 5C9.94772 5 9.5 5.44772 9.5 6C9.5 6.55228 9.94772 7 10.5 7V5ZM10.5075 7C11.0598 7 11.5075 6.55228 11.5075 6C11.5075 5.44772 11.0598 5 10.5075 5V7ZM4.5 4H13.5V2H4.5V4ZM14 4.5V13.5H16V4.5H14ZM13.5 14H4.5V16H13.5V14ZM4 13.5V4.5H2V13.5H4ZM4.5 14C4.22386 14 4 13.7761 4 13.5H2C2 14.8807 3.11929 16 4.5 16V14ZM14 13.5C14 13.7761 13.7761 14 13.5 14V16C14.8807 16 16 14.8807 16 13.5H14ZM13.5 4C13.7761 4 14 4.22386 14 4.5H16C16 3.11929 14.8807 2 13.5 2V4ZM4.5 2C3.11929 2 2 3.11929 2 4.5H4C4 4.22386 4.22386 4 4.5 4V2ZM3.70711 12.7071L7.14645 9.26777L5.73223 7.85355L2.29289 11.2929L3.70711 12.7071ZM7.85355 9.26777L11.2929 12.7071L12.7071 11.2929L9.26777 7.85355L7.85355 9.26777ZM7.14645 9.26777C7.34171 9.0725 7.65829 9.07251 7.85355 9.26777L9.26777 7.85355C8.29146 6.87724 6.70854 6.87724 5.73223 7.85355L7.14645 9.26777ZM11.2071 11.2071L12.3964 10.0178L10.9822 8.60355L9.79289 9.79289L11.2071 11.2071ZM13.1036 10.0178L14.2929 11.2071L15.7071 9.79289L14.5178 8.60355L13.1036 10.0178ZM12.3964 10.0178C12.5917 9.8225 12.9083 9.82251 13.1036 10.0178L14.5178 8.60355C13.5415 7.62724 11.9585 7.62724 10.9822 8.60355L12.3964 10.0178ZM10.5 7H10.5075V5H10.5V7Z" fill="#15274D"/>
</svg>
