<svg width="21" height="20" viewBox="0 0 21 20" fill="none" xmlns="http://www.w3.org/2000/svg">
<g clip-path="url(#clip0_117_170)">
<path d="M20.3047 10.2305C20.3047 9.55068 20.2496 8.86724 20.132 8.19849H10.6997V12.0493H16.1012C15.877 13.2913 15.1568 14.3899 14.1022 15.0881V17.5867H17.3247C19.2171 15.845 20.3047 13.2729 20.3047 10.2305Z" fill="#4285F4"/>
<path d="M10.6998 20.0006C13.3968 20.0006 15.6713 19.1151 17.3285 17.5865L14.106 15.0879C13.2094 15.6979 12.052 16.0433 10.7035 16.0433C8.09462 16.0433 5.8826 14.2832 5.08892 11.9169H1.76355V14.4927C3.46114 17.8695 6.9188 20.0006 10.6998 20.0006Z" fill="#34A853"/>
<path d="M5.08516 11.9169C4.66627 10.6749 4.66627 9.33008 5.08516 8.08811V5.51233H1.76346C0.345123 8.33798 0.345123 11.667 1.76346 14.4927L5.08516 11.9169Z" fill="#FBBC04"/>
<path d="M10.6998 3.95805C12.1255 3.936 13.5034 4.47247 14.5359 5.45722L17.391 2.60218C15.5831 0.904587 13.1837 -0.0287217 10.6998 0.000673888C6.9188 0.000673888 3.46114 2.13185 1.76355 5.51234L5.08525 8.08813C5.87525 5.71811 8.09094 3.95805 10.6998 3.95805Z" fill="#EA4335"/>
</g>
<defs>
<clipPath id="clip0_117_170">
<rect width="20" height="20" fill="white" transform="translate(0.5)"/>
</clipPath>
</defs>
</svg>
