<svg width="18" height="18" viewBox="0 0 18 18" fill="none" xmlns="http://www.w3.org/2000/svg">
<path d="M12.75 10.5V15M10.5 12.75H15M4.5 7.5H6C6.82843 7.5 7.5 6.82843 7.5 6V4.5C7.5 3.67157 6.82843 3 6 3H4.5C3.67157 3 3 3.67157 3 4.5V6C3 6.82843 3.67157 7.5 4.5 7.5ZM12 7.5H13.5C14.3284 7.5 15 6.82843 15 6V4.5C15 3.67157 14.3284 3 13.5 3H12C11.1716 3 10.5 3.67157 10.5 4.5V6C10.5 6.82843 11.1716 7.5 12 7.5ZM4.5 15H6C6.82843 15 7.5 14.3284 7.5 13.5V12C7.5 11.1716 6.82843 10.5 6 10.5H4.5C3.67157 10.5 3 11.1716 3 12V13.5C3 14.3284 3.67157 15 4.5 15Z" stroke="#15274D" stroke-width="2" stroke-linecap="round" stroke-linejoin="round"/>
</svg>
