<svg width="18" height="18" viewBox="0 0 18 18" fill="none" xmlns="http://www.w3.org/2000/svg">
<path d="M5.81414 4.03714L6.33447 3.18317L6.33447 3.18317L5.81414 4.03714ZM7.74347 3.23798L6.7717 3.00207L7.74347 3.23798ZM4.03714 5.81414L3.18317 6.33447L3.18317 6.33447L4.03714 5.81414ZM3.23798 7.74347L3.00207 6.7717L3.23798 7.74347ZM3.23798 10.2565L3.4739 9.28476L3.4739 9.28476L3.23798 10.2565ZM4.03714 12.1859L3.18317 11.6655L3.18317 11.6655L4.03714 12.1859ZM5.81414 13.9629L6.33447 14.8168L6.33447 14.8168L5.81414 13.9629ZM7.74347 14.762L8.71524 14.5261L7.74347 14.762ZM10.2565 14.762L11.2283 14.9979L11.2283 14.9979L10.2565 14.762ZM12.1859 13.9629L11.6655 14.8168L11.6655 14.8168L12.1859 13.9629ZM13.9629 12.1859L14.8168 11.6655L14.8168 11.6655L13.9629 12.1859ZM14.762 10.2565L14.9979 11.2283L14.9979 11.2283L14.762 10.2565ZM14.762 7.74347L14.5261 8.71524L14.762 7.74347ZM13.9629 5.81414L14.8168 6.33447L14.8168 6.33447L13.9629 5.81414ZM12.1859 4.03714L11.6655 3.18317L11.6655 3.18317L12.1859 4.03714ZM10.2565 3.23798L9.28476 3.4739L9.28476 3.4739L10.2565 3.23798ZM5.29381 4.8911C6.61995 5.69913 8.34889 4.98298 8.71524 3.4739L6.7717 3.00207C6.72488 3.19491 6.50394 3.28643 6.33447 3.18317L5.29381 4.8911ZM4.8911 5.29381C4.83743 5.20572 4.83597 5.14479 4.84246 5.10321C4.85056 5.05135 4.87925 4.98903 4.93414 4.93414C4.98903 4.87925 5.05135 4.85056 5.10321 4.84246C5.14479 4.83597 5.20572 4.83743 5.29381 4.8911L6.33447 3.18317C4.28159 1.93233 1.93233 4.28158 3.18317 6.33447L4.8911 5.29381ZM3.4739 8.71524C4.98298 8.34889 5.69913 6.61995 4.8911 5.29381L3.18317 6.33447C3.28643 6.50394 3.19491 6.72488 3.00207 6.7717L3.4739 8.71524ZM3.4739 9.28476C3.37366 9.26042 3.32954 9.21837 3.30473 9.18438C3.27378 9.14198 3.25 9.07763 3.25 9C3.25 8.92237 3.27378 8.85802 3.30473 8.81562C3.32954 8.78163 3.37366 8.73958 3.4739 8.71524L3.00207 6.7717C0.665976 7.33882 0.66598 10.6612 3.00207 11.2283L3.4739 9.28476ZM4.8911 12.7062C5.69913 11.3801 4.98298 9.65111 3.4739 9.28476L3.00207 11.2283C3.19491 11.2751 3.28643 11.4961 3.18317 11.6655L4.8911 12.7062ZM5.29381 13.1089C5.20572 13.1626 5.14479 13.164 5.10321 13.1575C5.05135 13.1494 4.98903 13.1208 4.93414 13.0659C4.87925 13.011 4.85056 12.9487 4.84246 12.8968C4.83597 12.8552 4.83743 12.7943 4.8911 12.7062L3.18317 11.6655C1.93233 13.7184 4.28159 16.0677 6.33447 14.8168L5.29381 13.1089ZM8.71524 14.5261C8.34889 13.017 6.61995 12.3009 5.29381 13.1089L6.33447 14.8168C6.50394 14.7136 6.72488 14.8051 6.7717 14.9979L8.71524 14.5261ZM9.28476 14.5261C9.26042 14.6263 9.21837 14.6705 9.18438 14.6953C9.14198 14.7262 9.07763 14.75 9 14.75C8.92237 14.75 8.85803 14.7262 8.81563 14.6953C8.78163 14.6705 8.73958 14.6263 8.71524 14.5261L6.7717 14.9979C7.33882 17.334 10.6612 17.334 11.2283 14.9979L9.28476 14.5261ZM12.7062 13.1089C11.3801 12.3009 9.65112 13.017 9.28476 14.5261L11.2283 14.9979C11.2751 14.8051 11.4961 14.7136 11.6655 14.8168L12.7062 13.1089ZM13.1089 12.7062C13.1626 12.7943 13.164 12.8552 13.1575 12.8968C13.1494 12.9487 13.1208 13.011 13.0659 13.0659C13.011 13.1208 12.9487 13.1494 12.8968 13.1575C12.8552 13.164 12.7943 13.1626 12.7062 13.1089L11.6655 14.8168C13.7184 16.0677 16.0677 13.7184 14.8168 11.6655L13.1089 12.7062ZM14.5261 9.28476C13.017 9.65111 12.3009 11.3801 13.1089 12.7062L14.8168 11.6655C14.7136 11.4961 14.8051 11.2751 14.9979 11.2283L14.5261 9.28476ZM14.5261 8.71524C14.6263 8.73958 14.6705 8.78163 14.6953 8.81562C14.7262 8.85802 14.75 8.92237 14.75 9C14.75 9.07763 14.7262 9.14198 14.6953 9.18438C14.6705 9.21837 14.6263 9.26042 14.5261 9.28476L14.9979 11.2283C17.334 10.6612 17.334 7.33882 14.9979 6.7717L14.5261 8.71524ZM13.1089 5.29381C12.3009 6.61995 13.017 8.34889 14.5261 8.71524L14.9979 6.7717C14.8051 6.72488 14.7136 6.50394 14.8168 6.33447L13.1089 5.29381ZM12.7062 4.8911C12.7943 4.83743 12.8552 4.83597 12.8968 4.84246C12.9487 4.85056 13.011 4.87925 13.0659 4.93414C13.1208 4.98903 13.1494 5.05135 13.1575 5.10321C13.164 5.14479 13.1626 5.20572 13.1089 5.29381L14.8168 6.33447C16.0677 4.28159 13.7184 1.93233 11.6655 3.18317L12.7062 4.8911ZM9.28476 3.4739C9.65112 4.98298 11.3801 5.69913 12.7062 4.8911L11.6655 3.18317C11.4961 3.28643 11.2751 3.19491 11.2283 3.00207L9.28476 3.4739ZM11.2283 3.00207C10.6612 0.66598 7.33883 0.665976 6.7717 3.00207L8.71524 3.4739C8.73958 3.37366 8.78163 3.32954 8.81563 3.30473C8.85803 3.27378 8.92237 3.25 9 3.25C9.07763 3.25 9.14198 3.27378 9.18438 3.30473C9.21837 3.32954 9.26042 3.37366 9.28476 3.4739L11.2283 3.00207ZM10.25 9C10.25 9.69036 9.69036 10.25 9 10.25V12.25C10.7949 12.25 12.25 10.7949 12.25 9H10.25ZM9 10.25C8.30964 10.25 7.75 9.69036 7.75 9H5.75C5.75 10.7949 7.20507 12.25 9 12.25V10.25ZM7.75 9C7.75 8.30964 8.30964 7.75 9 7.75V5.75C7.20507 5.75 5.75 7.20507 5.75 9H7.75ZM9 7.75C9.69036 7.75 10.25 8.30964 10.25 9H12.25C12.25 7.20507 10.7949 5.75 9 5.75V7.75Z" fill="#15274D"/>
</svg>
