<svg width="18" height="18" viewBox="0 0 18 18" fill="none" xmlns="http://www.w3.org/2000/svg">
<path d="M15 4.5C15 5.32843 14.3284 6 13.5 6V7.5C15.1569 7.5 16.5 6.15685 16.5 4.5H15ZM12 4.5C12 3.67157 12.6716 3 13.5 3V1.5C11.8431 1.5 10.5 2.84315 10.5 4.5H12ZM13.5 3C14.3284 3 15 3.67157 15 4.5H16.5C16.5 2.84315 15.1569 1.5 13.5 1.5V3ZM15 13.5C15 14.3284 14.3284 15 13.5 15V16.5C15.1569 16.5 16.5 15.1569 16.5 13.5H15ZM13.5 15C12.6716 15 12 14.3284 12 13.5H10.5C10.5 15.1569 11.8431 16.5 13.5 16.5V15ZM13.5 12C14.3284 12 15 12.6716 15 13.5H16.5C16.5 11.8431 15.1569 10.5 13.5 10.5V12ZM4.5 10.5C3.67157 10.5 3 9.82843 3 9H1.5C1.5 10.6569 2.84315 12 4.5 12V10.5ZM3 9C3 8.17157 3.67157 7.5 4.5 7.5V6C2.84315 6 1.5 7.34315 1.5 9H3ZM6 9C6 9.24253 5.943 9.46959 5.84234 9.67052L7.18346 10.3424C7.38623 9.93763 7.5 9.48102 7.5 9H6ZM5.84234 9.67052C5.59516 10.1639 5.08615 10.5 4.5 10.5V12C5.67558 12 6.69184 11.3237 7.18346 10.3424L5.84234 9.67052ZM4.5 7.5C5.08615 7.5 5.59516 7.83608 5.84234 8.32948L7.18346 7.65762C6.69184 6.6763 5.67558 6 4.5 6V7.5ZM5.84234 8.32948C5.943 8.53041 6 8.75747 6 9H7.5C7.5 8.51898 7.38623 8.06237 7.18346 7.65762L5.84234 8.32948ZM6.84831 8.66437L11.8225 6.17727L11.1517 4.83563L6.17749 7.32273L6.84831 8.66437ZM13.5 6C12.9138 6 12.4048 5.66392 12.1577 5.17052L10.8165 5.84238C11.3082 6.8237 12.3244 7.5 13.5 7.5V6ZM12.1577 5.17052C12.057 4.96959 12 4.74253 12 4.5H10.5C10.5 4.98102 10.6138 5.43763 10.8165 5.84238L12.1577 5.17052ZM6.17749 10.6773L11.1517 13.1644L11.8225 11.8227L6.84831 9.33563L6.17749 10.6773ZM12 13.5C12 13.2575 12.057 13.0304 12.1577 12.8295L10.8165 12.1576C10.6138 12.5624 10.5 13.019 10.5 13.5H12ZM12.1577 12.8295C12.4048 12.3361 12.9138 12 13.5 12V10.5C12.3244 10.5 11.3082 11.1763 10.8165 12.1576L12.1577 12.8295Z" fill="#15274D"/>
</svg>
